<svg width="1524" height="261" viewBox="0 0 1524 261" fill="none" xmlns="http://www.w3.org/2000/svg">
<g filter="url(#filter0_b_14_217)">
<path d="M102.364 261C76.3552 261 54.5224 255.518 36.8653 244.553C19.4467 233.589 7.1583 218.334 0 198.789L54.761 166.968C64.0668 189.136 80.5309 200.219 104.153 200.219C123.719 200.219 133.502 194.618 133.502 183.415C133.502 176.264 127.895 170.305 116.68 165.538C112.863 164.108 102.364 160.89 85.1838 155.885C60.8456 148.973 42.3533 139.319 29.707 126.925C17.0606 114.53 10.7375 98.0835 10.7375 77.5849C10.7375 54.4644 18.9695 35.7534 35.4336 21.4521C52.3749 7.15068 73.134 0 97.7108 0C118.709 0 137.32 5.00548 153.546 15.0164C169.771 24.789 182.179 38.8521 190.769 57.2055L137.082 88.6685C129.207 70.0767 116.203 60.7808 98.0688 60.7808C90.6718 60.7808 84.9452 62.3301 80.8888 65.4288C76.8325 68.289 74.8043 72.2219 74.8043 77.2274C74.8043 82.7096 77.6676 87.3575 83.3942 91.1712C89.3595 94.9849 100.813 99.3945 117.754 104.4C130.4 108.214 140.183 111.551 147.103 114.411C154.977 117.748 163.09 122.277 171.441 127.997C188.86 139.438 197.569 157.673 197.569 182.7C197.569 207.251 188.86 226.438 171.441 240.263C154.023 254.088 130.997 261 102.364 261Z" fill="white" fill-opacity="0.1"/>
<path d="M335.52 255.637H267.874L197.723 5.36301H266.801L305.455 163.036L350.195 5.36301H400.661L445.4 163.036L484.413 5.36301H553.133L483.339 255.637H415.693L375.607 114.411L335.52 255.637Z" fill="white" fill-opacity="0.1"/>
<path d="M777.098 223.459C751.567 248.486 720.548 261 684.04 261C647.056 261 615.917 248.486 590.624 223.459C565.332 198.193 552.685 167.207 552.685 130.5C552.685 93.7931 565.332 62.926 590.624 37.8986C615.917 12.6329 647.056 0 684.04 0C720.786 0 751.805 12.6329 777.098 37.8986C802.629 62.926 815.395 93.7931 815.395 130.5C815.395 166.968 802.629 197.955 777.098 223.459ZM635.722 179.482C648.845 192.115 664.951 198.431 684.04 198.431C703.129 198.431 719.235 192.115 732.359 179.482C745.244 166.611 751.686 150.284 751.686 130.5C751.686 110.478 745.244 94.2699 732.359 81.8753C719.474 69.0041 703.368 62.5685 684.04 62.5685C664.713 62.5685 648.607 69.0041 635.722 81.8753C622.837 94.2699 616.394 110.478 616.394 130.5C616.394 150.284 622.837 166.611 635.722 179.482Z" fill="white" fill-opacity="0.1"/>
<path d="M1059.87 223.459C1034.33 248.486 1003.31 261 966.807 261C929.823 261 898.684 248.486 873.391 223.459C848.099 198.193 835.452 167.207 835.452 130.5C835.452 93.7931 848.099 62.926 873.391 37.8986C898.684 12.6329 929.823 0 966.807 0C1003.55 0 1034.57 12.6329 1059.87 37.8986C1085.4 62.926 1098.16 93.7931 1098.16 130.5C1098.16 166.968 1085.4 197.955 1059.87 223.459ZM918.489 179.482C931.612 192.115 947.718 198.431 966.807 198.431C985.896 198.431 1002 192.115 1015.13 179.482C1028.01 166.611 1034.45 150.284 1034.45 130.5C1034.45 110.478 1028.01 94.2699 1015.13 81.8753C1002.24 69.0041 986.135 62.5685 966.807 62.5685C947.48 62.5685 931.374 69.0041 918.489 81.8753C905.604 94.2699 899.161 110.478 899.161 130.5C899.161 150.284 905.604 166.611 918.489 179.482Z" fill="white" fill-opacity="0.1"/>
<path d="M1207.22 261C1181.21 261 1159.38 255.518 1141.72 244.553C1124.3 233.589 1112.01 218.334 1104.85 198.789L1159.61 166.968C1168.92 189.136 1185.38 200.219 1209.01 200.219C1228.57 200.219 1238.36 194.618 1238.36 183.415C1238.36 176.264 1232.75 170.305 1221.53 165.538C1217.72 164.108 1207.22 160.89 1190.04 155.885C1165.7 148.973 1147.21 139.319 1134.56 126.925C1121.91 114.53 1115.59 98.0835 1115.59 77.5849C1115.59 54.4644 1123.82 35.7534 1140.29 21.4521C1157.23 7.15068 1177.99 0 1202.56 0C1223.56 0 1242.17 5.00548 1258.4 15.0164C1274.62 24.789 1287.03 38.8521 1295.62 57.2055L1241.93 88.6685C1234.06 70.0767 1221.06 60.7808 1202.92 60.7808C1195.53 60.7808 1189.8 62.3301 1185.74 65.4288C1181.69 68.289 1179.66 72.2219 1179.66 77.2274C1179.66 82.7096 1182.52 87.3575 1188.25 91.1712C1194.21 94.9849 1205.67 99.3945 1222.61 104.4C1235.25 108.214 1245.04 111.551 1251.96 114.411C1259.83 117.748 1267.94 122.277 1276.29 127.997C1293.71 139.438 1302.42 157.673 1302.42 182.7C1302.42 207.251 1293.71 226.438 1276.29 240.263C1258.88 254.088 1235.85 261 1207.22 261Z" fill="white" fill-opacity="0.1"/>
<path d="M1460.29 97.9644V5.36301H1524V255.637H1460.29V159.46H1389.78V255.637H1325.71V5.36301H1389.78V97.9644H1460.29Z" fill="white" fill-opacity="0.1"/>
</g>
<defs>
<filter id="filter0_b_14_217" x="-4" y="-4" width="1532" height="269" filterUnits="userSpaceOnUse" color-interpolation-filters="sRGB">
<feFlood flood-opacity="0" result="BackgroundImageFix"/>
<feGaussianBlur in="BackgroundImage" stdDeviation="2"/>
<feComposite in2="SourceAlpha" operator="in" result="effect1_backgroundBlur_14_217"/>
<feBlend mode="normal" in="SourceGraphic" in2="effect1_backgroundBlur_14_217" result="shape"/>
</filter>
</defs>
</svg>
