<svg width="832" height="347" viewBox="0 0 832 347" fill="none" xmlns="http://www.w3.org/2000/svg">
<path d="M194.455 6.77734V84.9427H80.9474V136.451H192.193V214.616H80.9474V323.053H0V6.77734H194.455Z" fill="#DADADA" fill-opacity="0.24"/>
<path d="M500.745 323.053H413.467L399.9 277.419H294.533L280.966 323.053H193.236L297.699 6.77734H396.283L500.745 323.053ZM346.99 100.305L315.335 207.839H379.098L346.99 100.305Z" fill="#DADADA" fill-opacity="0.24"/>
<path d="M832 164.915C832 202.868 820.694 236.605 798.083 266.124L826.573 296.848L770.046 347L738.843 313.565C716.232 324.409 691.963 329.831 666.035 329.831C619.306 329.831 579.963 314.017 548.006 282.389C516.049 250.461 500.07 211.303 500.07 164.915C500.07 118.528 516.049 79.5208 548.006 47.8932C579.963 15.9644 619.306 0 666.035 0C712.463 0 751.656 15.9644 783.612 47.8932C815.871 79.5208 832 118.528 832 164.915ZM666.035 250.762C667.543 250.762 671.914 250.461 679.15 249.858L636.641 204.224L693.621 154.523L742.008 206.031C748.339 193.38 751.505 179.675 751.505 164.915C751.505 139.613 743.365 119.131 727.085 103.467C710.805 87.2018 690.455 79.069 666.035 79.069C641.615 79.069 621.266 87.2018 604.986 103.467C588.706 119.131 580.566 139.613 580.566 164.915C580.566 189.916 588.706 210.549 604.986 226.815C621.567 242.78 641.917 250.762 666.035 250.762Z" fill="#DADADA" fill-opacity="0.24"/>
</svg>
